<svg width="28" height="28" viewBox="0 0 28 28" fill="none" xmlns="http://www.w3.org/2000/svg">
<path d="M6.75281 6.3571C6.28731 5.54632 6.56356 4.50959 7.36983 4.04148L13.9393 0.22739C14.7456 -0.240713 15.7765 0.03708 16.2421 0.847858C16.7076 1.65864 16.4313 2.69538 15.625 3.16348L9.05556 6.97757C8.24929 7.44567 7.21831 7.16788 6.75281 6.3571Z" fill="#37D5C7"/>
<path d="M11.3927 27.1521C10.9272 26.3414 11.2034 25.3046 12.0097 24.8365L18.5792 21.0224C19.3854 20.5543 20.4164 20.8321 20.8819 21.6429C21.3474 22.4537 21.0712 23.4904 20.2649 23.9585L13.6954 27.7726C12.8891 28.2407 11.8582 27.9629 11.3927 27.1521Z" fill="#37D5C7"/>
<path d="M14.7298 13.4703C14.2643 12.6595 14.5406 11.6228 15.3469 11.1547L24.4711 5.85735C25.2774 5.38925 26.3084 5.66704 26.7739 6.47782C27.2394 7.2886 26.9631 8.32534 26.1569 8.79344L17.0326 14.0908C16.2263 14.5589 15.1953 14.2811 14.7298 13.4703Z" fill="#37D5C7"/>
<path d="M1.22613 21.3103C0.760625 20.4995 1.03687 19.4628 1.84314 18.9947L11.6974 13.2735C12.5036 12.8054 13.5346 13.0832 14.0001 13.894C14.4656 14.7048 14.1894 15.7415 13.3831 16.2096L3.52887 21.9308C2.7226 22.3989 1.69163 22.1211 1.22613 21.3103Z" fill="#37D5C7"/>
<path d="M16.2155 6.7353C15.75 5.92452 16.0262 4.88778 16.8325 4.41968L18.6573 3.36021C19.4636 2.89211 20.4946 3.1699 20.9601 3.98068C21.4256 4.79145 21.1493 5.82819 20.3431 6.2963L18.5182 7.35577C17.712 7.82387 16.681 7.54608 16.2155 6.7353Z" fill="#37D5C7"/>
<path d="M21.6114 21.219C21.1459 20.4083 21.4221 19.3715 22.2284 18.9034L24.0533 17.8439C24.8595 17.3758 25.8905 17.6536 26.356 18.4644C26.8215 19.2752 26.5452 20.3119 25.739 20.78L23.9141 21.8395C23.1079 22.3076 22.0769 22.0298 21.6114 21.219Z" fill="#37D5C7"/>
<path d="M6.30976 24.2312C5.84426 23.4204 6.12051 22.3837 6.92678 21.9156L8.75164 20.8561C9.55791 20.388 10.5889 20.6658 11.0544 21.4766C11.5199 22.2874 11.2436 23.3241 10.4374 23.7922L8.61251 24.8517C7.80624 25.3198 6.77527 25.042 6.30976 24.2312Z" fill="#37D5C7"/>
<path d="M1.27829 9.53552C0.812791 8.72474 1.08904 7.688 1.89531 7.2199L3.72016 6.16043C4.52643 5.69232 5.55741 5.97012 6.02291 6.78089C6.48841 7.59167 6.21216 8.62841 5.40589 9.09652L3.58104 10.156C2.77477 10.6241 1.74379 10.3463 1.27829 9.53552Z" fill="#37D5C7"/>
<path d="M1.25184 15.423C0.786341 14.6122 1.06259 13.5755 1.86886 13.1074L13.183 6.53866C13.9892 6.07056 15.0202 6.34835 15.4857 7.15913C15.9512 7.96991 15.675 9.00665 14.8687 9.47475L3.55459 16.0435C2.74832 16.5116 1.71734 16.2338 1.25184 15.423Z" fill="#37D5C7"/>
<path d="M11.7843 21.0528C11.3188 20.242 11.595 19.2053 12.4013 18.7372L23.7154 12.1685C24.5217 11.7004 25.5526 11.9782 26.0181 12.7889C26.4836 13.5997 26.2074 14.6364 25.4011 15.1046L14.087 21.6733C13.2808 22.1414 12.2498 21.8636 11.7843 21.0528Z" fill="#37D5C7"/>
</svg>
