<svg width="24" height="18" viewBox="0 0 24 18" fill="none" xmlns="http://www.w3.org/2000/svg">
    <path d="M24 5.28564H0V15.9999C0 16.3409 0.135459 16.6679 0.376577 16.9091C0.617695 17.1502 0.944722 17.2856 1.28571 17.2856H22.7143C23.0553 17.2856 23.3823 17.1502 23.6234 16.9091C23.8645 16.6679 24 16.3409 24 15.9999V5.28564ZM4.28571 6.99993H17.1429V7.85707H4.28571V6.99993ZM1.71429 6.99993H3.42857V7.85707H1.71429V6.99993ZM14.5714 10.4285H1.71429V9.57136H14.5714V10.4285ZM19.7143 15.5714C19.2482 15.5707 18.7951 15.4178 18.4239 15.1359C18.0558 15.4169 17.6059 15.5698 17.1429 15.5714C16.5745 15.5714 16.0295 15.3456 15.6276 14.9437C15.2258 14.5419 15 13.9968 15 13.4285C15 12.8602 15.2258 12.3151 15.6276 11.9133C16.0295 11.5114 16.5745 11.2856 17.1429 11.2856C17.6059 11.2872 18.0558 11.4401 18.4239 11.7211C18.6949 11.5155 19.0111 11.3774 19.3461 11.3183C19.6811 11.2591 20.0254 11.2806 20.3505 11.3809C20.6756 11.4812 20.9721 11.6575 21.2155 11.8951C21.459 12.1328 21.6423 12.425 21.7504 12.7476C21.8586 13.0701 21.8883 13.4138 21.8372 13.7501C21.7862 14.0865 21.6558 14.4059 21.4568 14.6818C21.2578 14.9578 20.996 15.1824 20.693 15.337C20.39 15.4917 20.0545 15.5721 19.7143 15.5714Z" fill="white"/>
    <path d="M17.1431 14.7143C17.8532 14.7143 18.4289 14.1386 18.4289 13.4285C18.4289 12.7185 17.8532 12.1428 17.1431 12.1428C16.4331 12.1428 15.8574 12.7185 15.8574 13.4285C15.8574 14.1386 16.4331 14.7143 17.1431 14.7143Z" fill="white"/>
    <path d="M19.7137 12.1428C19.4564 12.1442 19.2056 12.2234 18.9941 12.37C19.1846 12.6902 19.2851 13.0559 19.2851 13.4285C19.2851 13.8012 19.1846 14.1669 18.9941 14.4871C19.1603 14.6001 19.3506 14.6724 19.5498 14.6984C19.749 14.7243 19.9515 14.7031 20.141 14.6365C20.3305 14.5699 20.5017 14.4598 20.6409 14.3149C20.7801 14.17 20.8833 13.9945 20.9422 13.8025C21.0012 13.6105 21.0142 13.4073 20.9803 13.2093C20.9463 13.0113 20.8664 12.824 20.7469 12.6626C20.6274 12.5011 20.4716 12.37 20.2922 12.2797C20.1127 12.1894 19.9146 12.1425 19.7137 12.1428Z" fill="white"/>
    <path d="M24 1.28571C24 0.944722 23.8645 0.617695 23.6234 0.376577C23.3823 0.135459 23.0553 0 22.7143 0H1.28571C0.944722 0 0.617695 0.135459 0.376577 0.376577C0.135459 0.617695 0 0.944722 0 1.28571V3.42857H24V1.28571Z" fill="white"/>
</svg>