<svg xmlns="http://www.w3.org/2000/svg" width="700" height="700" viewBox="-200 -200 1100 1100">
    <g transform="translate(0.000000,700.000000) scale(0.100000,-0.100000)" fill="#fff">
        <path d="M1180 6885 c-7 -8 -27 -15 -45 -15 -18 0 -38 -7 -45 -15 -7 -8 -22
-15 -34 -15 -11 -1 -32 -14 -46 -30 -13 -17 -32 -30 -42 -30 -23 0 -98 -77
-98 -100 0 -10 -13 -30 -30 -43 -16 -14 -30 -34 -30 -45 0 -11 -7 -25 -15 -32
-8 -7 -15 -20 -15 -30 0 -10 -7 -23 -15 -30 -13 -11 -15 -357 -15 -3000 0
-2643 2 -2989 15 -3000 8 -7 15 -20 15 -30 0 -22 164 -184 190 -188 10 -2 24
-10 30 -18 11 -12 340 -14 2442 -14 2150 0 2429 2 2434 15 4 8 15 15 26 15 29
0 228 198 228 226 0 12 7 24 15 28 8 3 15 16 15 30 0 13 7 26 15 30 13 5 15
345 15 2979 0 2632 -2 2976 -15 2987 -8 7 -15 27 -15 45 0 18 -7 38 -15 45 -8
7 -15 20 -15 30 0 23 -75 100 -98 100 -10 0 -29 13 -42 30 -14 16 -35 29 -46
30 -12 0 -27 7 -34 15 -7 8 -27 15 -45 15 -18 0 -38 7 -45 15 -11 13 -281 15
-2320 15 -2039 0 -2309 -2 -2320 -15z m4666 -329 l104 -104 0 -2873 0 -2874
-87 -87 c-48 -49 -94 -88 -101 -88 -8 0 -25 -9 -39 -20 -26 -20 -41 -20 -2320
-20 l-2295 0 -59 59 -59 58 0 2909 0 2909 117 117 118 118 2258 0 2259 0 104
-104z" />
        <path d="M2437 6123 c-4 -3 -7 -16 -7 -29 0 -12 -7 -24 -15 -28 -13 -5 -15
-119 -15 -944 l0 -939 23 -21 c21 -20 34 -22 150 -22 l127 0 0 37 c0 20 7 44
15 53 12 13 15 74 16 370 1 195 3 360 6 367 8 20 212 18 219 -2 4 -10 19 -15
43 -15 30 0 44 -8 74 -38 20 -21 37 -45 37 -53 0 -8 16 -30 35 -49 19 -19 35
-43 35 -54 1 -12 14 -32 30 -46 17 -13 30 -34 30 -46 0 -12 7 -24 15 -28 8 -3
15 -16 15 -30 0 -13 7 -26 15 -30 8 -3 15 -16 15 -29 0 -13 12 -33 30 -47 16
-14 29 -35 30 -48 0 -12 7 -25 15 -28 8 -4 15 -16 15 -28 0 -12 16 -37 35 -56
19 -19 35 -41 35 -51 0 -9 7 -22 15 -29 8 -7 15 -20 15 -29 0 -10 14 -30 30
-46 17 -16 30 -39 30 -51 0 -12 7 -24 15 -28 8 -3 15 -16 15 -30 0 -13 7 -26
15 -30 8 -3 15 -16 15 -30 0 -13 7 -26 15 -30 10 -4 15 -20 15 -50 0 -30 -5
-46 -15 -50 -8 -3 -15 -16 -15 -29 0 -13 -12 -33 -30 -47 -16 -14 -29 -35 -30
-48 0 -12 -7 -25 -15 -28 -8 -4 -15 -16 -15 -28 0 -12 -13 -35 -30 -51 -16
-16 -30 -36 -30 -46 0 -9 -7 -22 -15 -29 -8 -7 -15 -19 -15 -26 0 -8 -16 -31
-35 -53 -19 -21 -35 -45 -35 -53 0 -8 -13 -27 -30 -43 -16 -16 -30 -39 -30
-51 0 -12 -7 -24 -15 -28 -8 -3 -15 -16 -15 -28 -1 -13 -14 -34 -30 -48 -18
-14 -30 -34 -30 -47 0 -13 -7 -26 -15 -29 -8 -4 -15 -17 -15 -30 0 -14 -7 -27
-15 -30 -8 -4 -15 -14 -15 -24 0 -9 -9 -29 -20 -43 -11 -14 -20 -31 -20 -38 0
-7 -7 -20 -16 -30 -9 -10 -14 -25 -11 -34 5 -13 32 -15 167 -15 147 0 162 2
180 20 11 11 20 28 20 38 0 10 14 31 30 47 17 16 30 36 30 45 0 9 14 29 30 45
17 16 30 34 30 41 0 6 9 23 20 37 11 14 20 32 20 40 0 8 7 20 15 27 8 7 15 22
15 34 1 11 14 32 30 46 17 13 30 34 30 46 0 12 7 24 15 28 8 3 15 16 15 29 0
13 12 33 30 47 16 14 29 34 30 45 0 21 40 65 59 65 6 0 11 -10 11 -23 0 -13
14 -36 30 -52 17 -16 30 -36 30 -46 0 -9 7 -22 15 -29 8 -7 15 -19 15 -27 0
-8 9 -26 20 -40 11 -14 20 -33 20 -42 1 -9 14 -27 30 -41 17 -13 30 -34 30
-46 0 -12 7 -24 15 -28 8 -3 15 -16 15 -29 0 -13 12 -33 30 -47 16 -14 29 -35
30 -48 0 -12 7 -25 15 -28 8 -4 15 -16 15 -29 0 -12 7 -28 15 -35 8 -7 15 -20
15 -29 0 -10 10 -27 23 -39 22 -21 33 -22 180 -22 147 0 158 1 179 22 19 19
20 22 5 33 -10 7 -17 22 -17 34 0 12 -7 24 -15 27 -8 4 -15 16 -15 28 0 12
-13 35 -30 51 -16 16 -30 36 -30 46 0 9 -7 22 -15 29 -8 7 -15 19 -15 27 0 8
-9 26 -20 40 -11 14 -20 31 -20 37 0 7 -13 25 -30 41 -16 16 -30 39 -30 51 0
12 -7 24 -15 28 -8 3 -15 16 -15 28 -1 13 -14 34 -30 48 -18 14 -30 34 -30 47
0 13 -7 26 -15 29 -8 4 -15 17 -15 30 0 14 -7 27 -15 30 -8 4 -15 15 -15 27 0
11 -16 35 -35 54 -19 19 -35 42 -35 52 0 10 -7 24 -15 31 -8 7 -15 20 -15 29
0 10 -13 30 -30 46 -33 32 -41 84 -15 105 8 7 15 20 15 30 0 10 7 23 15 30 8
7 15 21 15 31 0 9 7 24 15 33 8 8 15 21 15 30 0 8 16 30 35 49 19 19 35 44 35
56 0 12 7 24 15 27 8 4 15 16 15 28 0 12 13 33 30 46 16 14 29 35 30 46 0 12
7 27 15 34 8 7 15 20 15 29 0 10 14 30 30 46 17 16 30 36 30 45 0 9 16 31 35
50 19 19 35 41 35 51 0 9 7 22 15 29 8 7 15 23 15 35 0 13 7 25 15 29 8 3 15
16 15 30 0 13 7 27 16 30 11 4 14 17 12 43 l-3 38 -52 3 c-29 2 -56 9 -63 17
-17 21 -113 20 -130 0 -7 -8 -20 -15 -29 -15 -23 0 -61 -41 -61 -66 -1 -10
-14 -30 -30 -44 -17 -13 -30 -33 -30 -45 -1 -11 -14 -31 -30 -45 -18 -14 -30
-34 -30 -47 0 -13 -7 -26 -15 -29 -8 -4 -15 -16 -15 -28 0 -12 -13 -33 -30
-46 -16 -14 -29 -33 -30 -42 0 -10 -16 -35 -35 -57 -19 -21 -35 -45 -35 -53 0
-9 -6 -21 -14 -28 -8 -6 -16 -21 -18 -33 -5 -33 -43 -34 -73 -1 -14 15 -25 35
-25 45 0 9 -13 29 -30 42 -16 14 -30 34 -30 45 0 11 -7 25 -15 32 -8 7 -15 20
-15 29 0 10 -13 30 -30 46 -16 16 -30 36 -30 46 0 9 -7 22 -15 29 -8 7 -15 19
-15 27 0 8 -9 26 -20 40 -11 14 -20 33 -20 42 -1 9 -14 27 -30 41 -17 13 -30
34 -30 46 0 12 -7 24 -15 28 -8 3 -15 16 -15 28 -1 13 -14 34 -30 48 -23 18
-30 32 -30 60 0 38 32 80 61 80 20 0 189 171 189 191 0 9 7 22 15 29 8 7 15
29 15 50 0 24 5 40 15 44 13 4 15 35 15 185 0 150 -2 180 -15 185 -10 3 -15
19 -15 44 0 30 -6 43 -30 62 -16 14 -29 33 -30 43 0 23 -129 157 -151 157 -9
0 -26 8 -37 19 -17 14 -33 17 -73 13 -41 -4 -56 -1 -79 17 -29 21 -36 21 -443
21 -227 0 -417 -3 -420 -7z m900 -385 c42 -41 53 -59 53 -84 0 -17 9 -41 20
-54 23 -26 21 -71 -4 -99 -9 -9 -16 -31 -16 -46 0 -22 -13 -43 -52 -82 l-52
-53 -172 0 c-140 0 -174 -3 -184 -15 -16 -20 -185 -22 -193 -2 -7 19 -8 452
-1 470 5 15 34 17 277 17 l271 0 53 -52z" />
        <path d="M3360 2405 c-7 -8 -23 -15 -35 -15 -13 0 -25 -7 -29 -15 -3 -8 -14
-15 -25 -15 -22 0 -121 -93 -121 -114 0 -7 -9 -25 -20 -39 -11 -14 -20 -32
-20 -40 0 -8 -7 -20 -15 -27 -12 -10 -15 -37 -15 -122 0 -87 3 -110 15 -114
10 -4 15 -20 15 -44 0 -21 7 -43 15 -50 20 -17 19 -26 -5 -50 -12 -12 -33 -20
-54 -20 -18 0 -39 -7 -46 -16 -8 -8 -25 -14 -39 -12 -22 3 -26 8 -29 43 -2 22
-10 44 -18 48 -8 4 -14 18 -14 30 0 43 -75 82 -107 55 -18 -15 -17 -93 2 -108
10 -8 15 -31 15 -71 l0 -59 -38 0 c-26 0 -43 -7 -55 -21 -13 -15 -25 -19 -46
-14 -20 4 -32 0 -46 -15 -10 -11 -26 -20 -35 -20 -10 0 -23 -7 -30 -15 -7 -8
-20 -15 -29 -15 -10 0 -30 -13 -46 -30 -16 -16 -37 -30 -47 -30 -21 0 -87 -68
-88 -91 0 -9 -7 -22 -15 -29 -11 -9 -15 -32 -15 -80 0 -48 4 -71 15 -80 8 -7
15 -20 15 -29 0 -10 14 -30 30 -46 17 -16 30 -36 30 -45 0 -20 71 -90 91 -90
8 0 28 -14 44 -30 20 -21 38 -30 61 -30 18 0 40 -7 49 -16 25 -25 69 -27 90
-4 10 11 28 20 40 20 13 0 25 7 29 15 3 8 17 15 31 15 19 0 25 5 25 23 0 13
13 33 30 47 25 22 29 32 30 76 0 33 5 56 15 64 12 10 15 45 15 200 0 185 0
187 25 214 17 18 34 26 58 26 19 0 40 7 47 15 7 8 20 15 30 15 10 0 23 7 30
15 8 10 31 15 70 15 42 0 59 -4 64 -15 4 -11 21 -15 60 -15 39 0 55 -4 60 -15
4 -12 26 -15 111 -15 82 0 105 -3 105 -14 0 -7 -7 -19 -15 -26 -8 -7 -15 -20
-15 -29 0 -9 -27 -43 -60 -76 -33 -33 -60 -67 -60 -76 0 -9 -7 -22 -15 -29 -8
-7 -15 -20 -15 -30 0 -10 -7 -23 -15 -30 -8 -7 -15 -20 -15 -30 0 -9 -9 -25
-20 -35 -16 -14 -20 -31 -20 -78 0 -56 2 -62 39 -98 39 -39 39 -39 120 -39 63
0 83 3 87 15 4 8 16 15 29 15 12 0 28 7 35 15 10 11 36 15 112 15 78 0 100 3
104 15 4 8 17 15 30 15 14 0 27 7 30 15 4 8 16 15 28 15 12 0 37 16 56 35 38
40 75 45 108 17 17 -15 36 -18 112 -16 88 2 93 3 124 33 18 17 39 31 47 31 8
0 55 41 104 90 87 88 91 90 136 90 41 0 52 5 88 40 22 22 41 47 41 56 0 9 10
27 23 40 18 19 32 24 75 24 37 0 54 4 58 15 4 11 21 15 59 15 34 0 57 5 65 15
7 8 27 15 45 15 18 0 38 7 45 15 7 9 29 15 52 15 25 0 41 5 44 15 4 8 17 15
30 15 12 0 27 7 32 15 4 9 18 17 30 20 12 2 29 11 38 19 8 9 24 16 33 16 10 0
24 7 31 15 7 8 20 15 30 15 10 0 23 7 30 15 7 8 19 15 28 15 9 0 26 10 39 22
l23 22 -26 23 c-32 27 -104 32 -124 8 -7 -8 -20 -15 -30 -15 -9 0 -25 -9 -35
-20 -10 -11 -26 -20 -35 -20 -10 0 -23 -7 -30 -15 -7 -8 -20 -15 -30 -15 -10
0 -23 -7 -30 -15 -7 -8 -29 -15 -50 -15 -24 0 -40 -5 -44 -15 -3 -8 -17 -15
-31 -15 -14 0 -28 -7 -31 -15 -4 -11 -21 -15 -59 -15 -34 0 -57 -5 -65 -15
-18 -21 -143 -21 -160 1 -9 10 -26 14 -49 12 -30 -2 -37 -7 -39 -28 -2 -14
-10 -29 -18 -33 -8 -4 -14 -19 -14 -31 0 -13 -7 -26 -15 -30 -8 -3 -15 -16
-15 -29 0 -39 -12 -39 -51 -1 -43 42 -92 46 -97 8 -2 -12 -12 -30 -23 -40 -10
-9 -19 -25 -19 -34 0 -10 -7 -23 -15 -30 -8 -7 -15 -21 -15 -31 0 -23 -136
-159 -160 -159 -10 0 -23 -7 -30 -15 -18 -21 -42 -18 -67 9 -27 28 -29 42 -8
50 8 3 15 15 15 26 0 11 20 40 45 63 25 24 45 51 45 60 0 9 14 30 30 45 17 16
30 36 30 44 0 8 16 32 35 52 19 21 35 46 35 56 0 10 7 20 15 24 10 3 15 19 15
44 0 23 6 45 15 52 10 9 15 31 15 74 0 51 -4 65 -24 84 -29 27 -106 31 -126 7
-7 -8 -20 -15 -29 -15 -21 0 -221 -200 -221 -221 0 -9 -7 -22 -15 -29 -8 -7
-15 -20 -15 -30 0 -10 -7 -23 -15 -30 -8 -7 -15 -20 -15 -30 0 -10 -7 -23 -15
-30 -9 -8 -15 -30 -15 -60 0 -68 -31 -100 -97 -100 -43 0 -53 -4 -86 -38 -20
-21 -37 -44 -37 -52 0 -23 -167 -190 -190 -190 -10 0 -23 -7 -28 -16 -6 -10
-19 -14 -38 -12 -25 3 -29 8 -32 39 -2 23 2 40 12 49 9 7 16 20 16 30 0 10 7
23 15 30 8 7 15 21 15 31 0 10 23 40 50 67 28 27 50 57 50 65 0 9 34 51 75 92
42 43 75 85 75 96 0 11 7 22 15 25 11 5 15 22 15 65 l0 59 -54 0 c-39 0 -55
-4 -60 -15 -4 -11 -22 -15 -74 -15 -50 0 -73 -4 -82 -15 -20 -24 -83 -19 -109
9 -26 28 -21 46 13 46 13 0 29 7 36 15 7 8 20 15 29 15 24 0 121 102 121 127
0 11 7 23 15 27 8 3 15 16 15 30 0 13 7 26 15 30 12 4 15 27 15 119 0 90 -3
117 -15 127 -8 7 -15 20 -15 29 0 21 -70 91 -92 91 -8 0 -21 7 -28 15 -10 11
-35 15 -110 15 -75 0 -100 -4 -110 -15z m154 -81 c14 -14 31 -20 59 -23 4 -1
7 -12 7 -26 0 -14 7 -28 15 -31 12 -5 15 -25 15 -94 0 -66 -4 -91 -15 -100 -8
-7 -15 -20 -15 -28 0 -21 -100 -122 -121 -122 -9 0 -24 -9 -34 -20 -10 -11
-26 -20 -35 -20 -10 0 -23 -7 -30 -15 -20 -24 -70 -18 -102 12 -15 15 -28 34
-28 44 0 9 -7 22 -15 29 -11 9 -15 34 -15 97 0 65 3 85 15 89 8 4 15 15 15 27
0 23 133 157 162 162 10 2 25 11 34 19 20 21 68 20 88 0z m844 -529 c3 -32 -2
-42 -27 -66 -17 -15 -31 -36 -31 -46 0 -11 -16 -34 -35 -53 -19 -19 -35 -41
-35 -51 0 -9 -6 -22 -14 -29 -8 -6 -16 -21 -18 -33 -2 -15 -11 -23 -30 -25
-37 -4 -48 31 -19 62 12 12 21 32 21 43 0 12 7 23 15 27 8 3 15 16 15 28 1 13
14 34 30 48 17 13 30 33 30 43 0 21 70 98 85 93 6 -1 11 -20 13 -41z m-1489
-413 c-1 -137 -4 -156 -20 -170 -12 -11 -19 -30 -19 -53 0 -24 -5 -39 -15 -43
-8 -3 -15 -16 -15 -28 0 -38 -41 -68 -93 -68 -43 0 -49 4 -131 85 -47 47 -86
94 -86 104 0 10 -9 26 -20 36 -35 32 -26 67 35 129 31 31 64 56 75 56 10 0 23
7 28 15 4 9 19 17 31 20 13 2 31 11 41 20 9 8 24 15 32 15 9 0 21 7 28 15 7 8
27 15 45 15 18 0 38 7 45 15 10 12 16 13 27 4 11 -10 13 -44 12 -167z m1146
-38 c0 -22 -97 -134 -116 -134 -14 0 -11 26 6 40 8 7 15 20 15 30 0 10 7 23
15 30 8 7 15 23 15 37 0 21 4 24 33 21 25 -2 32 -8 32 -24z" />
    </g>
</svg>
