<svg width="20" height="20" viewBox="0 0 20 20" fill="none" xmlns="http://www.w3.org/2000/svg">
<g clip-path="url(#clip0)">
  <path d="M5.48197 10.3749C4.75743 10.3749 4.16797 10.9643 4.16797 11.6889V12.2523H6.79597V11.6889C6.79597 10.9643 6.20651 10.3749 5.48197 10.3749Z" fill="white"/>
  <path d="M6.23257 8.49885C6.23257 8.08474 5.89567 7.7478 5.48152 7.7478C5.06737 7.7478 4.73047 8.0847 4.73047 8.49885C4.73047 8.913 5.06737 9.2499 5.48152 9.2499C5.89567 9.2499 6.23257 8.91297 6.23257 8.49885Z" fill="white"/>
  <path d="M19.6 3.77771H10.5625V16.2223H19.6V3.77771ZM11.6889 10.5625V9.43751H17.3486V10.5625H11.6889ZM17.3486 11.6893V12.8143H11.6889V11.6893H17.3486ZM11.6889 8.31071V7.18571H17.3486V8.31071H11.6889Z" fill="white"/>
  <path d="M9.43789 3.77771H0.400391V16.2223H9.43789V3.77771ZM3.60559 8.49881C3.60559 7.46437 4.44717 6.62276 5.48164 6.62276C6.51612 6.62276 7.35769 7.46434 7.35769 8.49881C7.35769 8.96182 7.18875 9.38591 6.90972 9.71347C7.5216 10.1571 7.92068 10.877 7.92068 11.6889V13.3773H3.04264V11.6889C3.04264 10.877 3.44172 10.157 4.0536 9.71347C3.77457 9.38591 3.60559 8.96182 3.60559 8.49881Z" fill="white"/>
</g>
<defs>
  <clipPath id="clip0">
    <rect width="19.2" height="19.2" fill="white" transform="translate(0.400391 0.400024)"/>
  </clipPath>
</defs>
</svg>