<svg width="18" height="24" viewBox="0 0 18 24" fill="none" xmlns="http://www.w3.org/2000/svg">
    <path d="M16.4359 0.005424C12.5882 0.344523 9.74897 2.26505 8.09382 5.04148C6.98457 6.43201 4.76879 10.6774 3.96294 12.8997C2.50179 15.6634 1.22764 18.9515 0.230521 21.9157C-0.379004 23.7284 2.35784 24.911 2.97086 23.0902C3.71657 20.8724 4.61747 18.4747 5.63555 16.2496C6.64586 18.5108 7.67247 20.7646 8.77473 22.9827C9.62908 24.7046 12.1999 23.1945 11.3486 21.4785C10.2138 19.1952 9.15962 16.8754 8.12098 14.5479C8.13417 14.5029 8.15085 14.459 8.16482 14.4144C8.33786 14.4637 8.52875 14.4788 8.73904 14.4389C10.3282 14.1405 11.9174 13.8429 13.5078 13.5446C14.1871 13.4169 14.4475 12.6735 14.3404 12.0784C14.0191 10.2948 13.003 9.05402 11.7382 7.87998C11.5504 7.24135 10.9242 6.67645 10.2293 6.11503C11.6381 3.83756 13.938 2.60143 16.9317 2.3376C18.4596 2.20375 17.9506 -0.127655 16.4359 0.005424ZM10.6456 10.1431C11.0386 10.552 11.3731 10.9823 11.6257 11.4805C10.8567 11.6248 10.0873 11.7688 9.3183 11.9131C9.70629 11.2884 10.1529 10.6987 10.6456 10.1431Z" fill="white"/>
    <path d="M13.9353 8.11278C15.0656 8.11278 15.9819 7.19647 15.9819 6.06615C15.9819 4.93584 15.0656 4.01953 13.9353 4.01953C12.805 4.01953 11.8887 4.93584 11.8887 6.06615C11.8887 7.19647 12.805 8.11278 13.9353 8.11278Z" fill="white"/>
</svg>