<svg width="13" height="14" viewBox="0 0 13 14" fill="none" xmlns="http://www.w3.org/2000/svg">
    <g opacity="0.5">
        <path fill-rule="evenodd" clip-rule="evenodd" d="M12.3004 3.00941L10.8231 1.47937L9.39339 0.114837C9.31528 0.0405308 9.2134 0 9.10813 0H0.414314C0.186781 0 0 0.185766 0 0.412063V13.5879C0 13.8142 0.186781 14 0.414314 14H12.0049C12.2325 14 12.4192 13.8142 12.4192 13.5879V3.2965C12.4158 3.18842 12.3717 3.08709 12.3004 3.00941ZM10.2356 2.0637L11.4276 3.29651H9.10472V0.98288L10.2356 2.0637ZM11.5872 13.1793H0.821861V0.824158H8.27612V3.70522C8.27612 3.93152 8.46291 4.11728 8.69044 4.11728H11.5872V13.1793Z" fill="white"/>
        <path fill-rule="evenodd" clip-rule="evenodd" d="M9.92964 10.7069H2.47877C2.25123 10.7069 2.06445 10.8927 2.06445 11.119C2.06445 11.3453 2.25123 11.531 2.47877 11.531H9.92964C10.1572 11.531 10.344 11.3453 10.344 11.119C10.344 10.8927 10.1606 10.7069 9.92964 10.7069Z" fill="white"/>
        <path fill-rule="evenodd" clip-rule="evenodd" d="M9.92964 8.23785H2.47877C2.25123 8.23785 2.06445 8.42362 2.06445 8.64992C2.06445 8.87621 2.25123 9.06198 2.47877 9.06198H9.92964C10.1572 9.06198 10.344 8.87621 10.344 8.64992C10.344 8.42362 10.1606 8.23785 9.92964 8.23785Z" fill="white"/>
        <path fill-rule="evenodd" clip-rule="evenodd" d="M2.06445 6.17754C2.06445 6.40383 2.25123 6.5896 2.47877 6.5896H9.92964C10.1572 6.5896 10.344 6.40383 10.344 6.17754C10.344 5.95124 10.1572 5.76547 9.92964 5.76547H2.47877C2.24784 5.76547 2.06445 5.95124 2.06445 6.17754Z" fill="white"/>
    </g>
</svg>
