<svg width="84" height="88" viewBox="0 0 84 88" fill="none" xmlns="http://www.w3.org/2000/svg">
<g filter="url(#filter0_d)">
<rect x="20" y="20" width="40" height="40" rx="12" fill="#FF886E"/>
<path d="M40.0004 30C35.9265 30 32.6123 33.3142 32.6123 37.3881C32.6123 38.7292 33.2138 40.1717 33.239 40.2325C33.4333 40.6936 33.8166 41.4098 34.093 41.8296L39.1586 49.505C39.3659 49.8196 39.6727 50 40.0004 50C40.3281 50 40.6349 49.8196 40.8422 49.5054L45.9083 41.8296C46.1851 41.4098 46.568 40.6936 46.7622 40.2325C46.7874 40.1721 47.3885 38.7297 47.3885 37.3881C47.3885 33.3142 44.0743 30 40.0004 30ZM45.9609 39.8953C45.7874 40.3086 45.4306 40.9748 45.1825 41.3512L40.1164 49.0269C40.0165 49.1786 39.9848 49.1786 39.8848 49.0269L34.8187 41.3512C34.5706 40.9748 34.2138 40.3081 34.0404 39.8948C34.033 39.877 33.4815 38.5493 33.4815 37.3881C33.4815 33.7936 36.4059 30.8692 40.0004 30.8692C43.5949 30.8692 46.5193 33.7936 46.5193 37.3881C46.5193 38.5511 45.9665 39.8822 45.9609 39.8953Z" fill="white"/>
<path d="M40.0002 33.4775C37.8433 33.4775 36.0889 35.2324 36.0889 37.3889C36.0889 39.5453 37.8433 41.3002 40.0002 41.3002C42.1571 41.3002 43.9115 39.5453 43.9115 37.3889C43.9115 35.2324 42.1571 33.4775 40.0002 33.4775ZM40.0002 40.431C38.3231 40.431 36.9581 39.0664 36.9581 37.3889C36.9581 35.7113 38.3231 34.3467 40.0002 34.3467C41.6773 34.3467 43.0424 35.7113 43.0424 37.3889C43.0424 39.0664 41.6773 40.431 40.0002 40.431Z" fill="white"/>
</g>
<defs>
<filter id="filter0_d" x="-4" y="0" width="88" height="88" filterUnits="userSpaceOnUse" color-interpolation-filters="sRGB">
<feFlood flood-opacity="0" result="BackgroundImageFix"/>
<feColorMatrix in="SourceAlpha" type="matrix" values="0 0 0 0 0 0 0 0 0 0 0 0 0 0 0 0 0 0 127 0"/>
<feOffset dy="4"/>
<feGaussianBlur stdDeviation="12"/>
<feColorMatrix type="matrix" values="0 0 0 0 0 0 0 0 0 0 0 0 0 0 0 0 0 0 0.04 0"/>
<feBlend mode="normal" in2="BackgroundImageFix" result="effect1_dropShadow"/>
<feBlend mode="normal" in="SourceGraphic" in2="effect1_dropShadow" result="shape"/>
</filter>
</defs>
</svg>
